<mxfile host="65bd71144e">
    <diagram id="xJiPaXfIU_5SHiq9arAD" name="Page-1">
        <mxGraphModel dx="1026" dy="771" grid="1" gridSize="10" guides="1" tooltips="1" connect="1" arrows="1" fold="1" page="1" pageScale="1" pageWidth="850" pageHeight="1100" math="0" shadow="0">
            <root>
                <mxCell id="0"/>
                <mxCell id="1" parent="0"/>
                <mxCell id="12" value="RegistrationSystem" style="swimlane;fontStyle=0;childLayout=stackLayout;horizontal=1;startSize=30;horizontalStack=0;resizeParent=1;resizeParentMax=0;resizeLast=0;collapsible=1;marginBottom=0;" vertex="1" parent="1">
                    <mxGeometry x="80" y="80" width="180" height="90" as="geometry"/>
                </mxCell>
                <mxCell id="13" value="+&lt;&lt;&lt;constructor&gt;&gt;&gt;_init_(self)" style="text;strokeColor=none;fillColor=none;align=left;verticalAlign=middle;spacingLeft=4;spacingRight=4;overflow=hidden;points=[[0,0.5],[1,0.5]];portConstraint=eastwest;rotatable=0;" vertex="1" parent="12">
                    <mxGeometry y="30" width="180" height="30" as="geometry"/>
                </mxCell>
                <mxCell id="14" value="+menu(self): void" style="text;strokeColor=none;fillColor=none;align=left;verticalAlign=middle;spacingLeft=4;spacingRight=4;overflow=hidden;points=[[0,0.5],[1,0.5]];portConstraint=eastwest;rotatable=0;" vertex="1" parent="12">
                    <mxGeometry y="60" width="180" height="30" as="geometry"/>
                </mxCell>
                <mxCell id="16" value="InstructorRegistrationSystem" style="swimlane;fontStyle=0;childLayout=stackLayout;horizontal=1;startSize=30;horizontalStack=0;resizeParent=1;resizeParentMax=0;resizeLast=0;collapsible=1;marginBottom=0;" vertex="1" parent="1">
                    <mxGeometry x="320" y="80" width="295" height="180" as="geometry"/>
                </mxCell>
                <mxCell id="19" value="-registrationSystem1: RegistrationSystem" style="text;strokeColor=none;fillColor=none;align=left;verticalAlign=middle;spacingLeft=4;spacingRight=4;overflow=hidden;points=[[0,0.5],[1,0.5]];portConstraint=eastwest;rotatable=0;" vertex="1" parent="16">
                    <mxGeometry y="30" width="295" height="30" as="geometry"/>
                </mxCell>
                <mxCell id="17" value="+&lt;&lt;&lt;constructor&gt;&gt;&gt;_init_(self, registrationSystem)" style="text;strokeColor=none;fillColor=none;align=left;verticalAlign=middle;spacingLeft=4;spacingRight=4;overflow=hidden;points=[[0,0.5],[1,0.5]];portConstraint=eastwest;rotatable=0;" vertex="1" parent="16">
                    <mxGeometry y="60" width="295" height="30" as="geometry"/>
                </mxCell>
                <mxCell id="18" value="-instructorLogin(self): void" style="text;strokeColor=none;fillColor=none;align=left;verticalAlign=middle;spacingLeft=4;spacingRight=4;overflow=hidden;points=[[0,0.5],[1,0.5]];portConstraint=eastwest;rotatable=0;" vertex="1" parent="16">
                    <mxGeometry y="90" width="295" height="30" as="geometry"/>
                </mxCell>
                <mxCell id="21" value="-instructorMenu(self, currentUser): void" style="text;strokeColor=none;fillColor=none;align=left;verticalAlign=middle;spacingLeft=4;spacingRight=4;overflow=hidden;points=[[0,0.5],[1,0.5]];portConstraint=eastwest;rotatable=0;" vertex="1" parent="16">
                    <mxGeometry y="120" width="295" height="30" as="geometry"/>
                </mxCell>
                <mxCell id="22" value="-signOut(self): void" style="text;strokeColor=none;fillColor=none;align=left;verticalAlign=middle;spacingLeft=4;spacingRight=4;overflow=hidden;points=[[0,0.5],[1,0.5]];portConstraint=eastwest;rotatable=0;" vertex="1" parent="16">
                    <mxGeometry y="150" width="295" height="30" as="geometry"/>
                </mxCell>
                <mxCell id="20" value="" style="endArrow=none;html=1;exitX=0;exitY=1.002;exitDx=0;exitDy=0;exitPerimeter=0;entryX=1.001;entryY=0.002;entryDx=0;entryDy=0;entryPerimeter=0;" edge="1" parent="16" source="19" target="17">
                    <mxGeometry width="50" height="50" relative="1" as="geometry">
                        <mxPoint x="110" y="300" as="sourcePoint"/>
                        <mxPoint x="160" y="250" as="targetPoint"/>
                    </mxGeometry>
                </mxCell>
                <mxCell id="23" value="AdvisorRegistrationSystem" style="swimlane;fontStyle=0;childLayout=stackLayout;horizontal=1;startSize=30;horizontalStack=0;resizeParent=1;resizeParentMax=0;resizeLast=0;collapsible=1;marginBottom=0;" vertex="1" parent="1">
                    <mxGeometry x="80" y="320" width="295" height="180" as="geometry"/>
                </mxCell>
                <mxCell id="24" value="-registrationSystem1: RegistrationSystem" style="text;strokeColor=none;fillColor=none;align=left;verticalAlign=middle;spacingLeft=4;spacingRight=4;overflow=hidden;points=[[0,0.5],[1,0.5]];portConstraint=eastwest;rotatable=0;" vertex="1" parent="23">
                    <mxGeometry y="30" width="295" height="30" as="geometry"/>
                </mxCell>
                <mxCell id="25" value="+&lt;&lt;&lt;constructor&gt;&gt;&gt;_init_(self, registrationSystem)" style="text;strokeColor=none;fillColor=none;align=left;verticalAlign=middle;spacingLeft=4;spacingRight=4;overflow=hidden;points=[[0,0.5],[1,0.5]];portConstraint=eastwest;rotatable=0;" vertex="1" parent="23">
                    <mxGeometry y="60" width="295" height="30" as="geometry"/>
                </mxCell>
                <mxCell id="26" value="-advisorLogin(self): void" style="text;strokeColor=none;fillColor=none;align=left;verticalAlign=middle;spacingLeft=4;spacingRight=4;overflow=hidden;points=[[0,0.5],[1,0.5]];portConstraint=eastwest;rotatable=0;" vertex="1" parent="23">
                    <mxGeometry y="90" width="295" height="30" as="geometry"/>
                </mxCell>
                <mxCell id="27" value="-advisorMenu(self, currentUser): void" style="text;strokeColor=none;fillColor=none;align=left;verticalAlign=middle;spacingLeft=4;spacingRight=4;overflow=hidden;points=[[0,0.5],[1,0.5]];portConstraint=eastwest;rotatable=0;" vertex="1" parent="23">
                    <mxGeometry y="120" width="295" height="30" as="geometry"/>
                </mxCell>
                <mxCell id="28" value="-signOut(self): void" style="text;strokeColor=none;fillColor=none;align=left;verticalAlign=middle;spacingLeft=4;spacingRight=4;overflow=hidden;points=[[0,0.5],[1,0.5]];portConstraint=eastwest;rotatable=0;" vertex="1" parent="23">
                    <mxGeometry y="150" width="295" height="30" as="geometry"/>
                </mxCell>
                <mxCell id="29" value="" style="endArrow=none;html=1;exitX=0;exitY=1.002;exitDx=0;exitDy=0;exitPerimeter=0;entryX=1.001;entryY=0.002;entryDx=0;entryDy=0;entryPerimeter=0;" edge="1" parent="23" source="24" target="25">
                    <mxGeometry width="50" height="50" relative="1" as="geometry">
                        <mxPoint x="110" y="300" as="sourcePoint"/>
                        <mxPoint x="160" y="250" as="targetPoint"/>
                    </mxGeometry>
                </mxCell>
                <mxCell id="30" value="StudentRegistrationSystem" style="swimlane;fontStyle=0;childLayout=stackLayout;horizontal=1;startSize=30;horizontalStack=0;resizeParent=1;resizeParentMax=0;resizeLast=0;collapsible=1;marginBottom=0;" vertex="1" parent="1">
                    <mxGeometry x="420" y="320" width="295" height="180" as="geometry"/>
                </mxCell>
                <mxCell id="31" value="-registrationSystem1: RegistrationSystem" style="text;strokeColor=none;fillColor=none;align=left;verticalAlign=middle;spacingLeft=4;spacingRight=4;overflow=hidden;points=[[0,0.5],[1,0.5]];portConstraint=eastwest;rotatable=0;" vertex="1" parent="30">
                    <mxGeometry y="30" width="295" height="30" as="geometry"/>
                </mxCell>
                <mxCell id="32" value="+&lt;&lt;&lt;constructor&gt;&gt;&gt;_init_(self, registrationSystem)" style="text;strokeColor=none;fillColor=none;align=left;verticalAlign=middle;spacingLeft=4;spacingRight=4;overflow=hidden;points=[[0,0.5],[1,0.5]];portConstraint=eastwest;rotatable=0;" vertex="1" parent="30">
                    <mxGeometry y="60" width="295" height="30" as="geometry"/>
                </mxCell>
                <mxCell id="33" value="-studentLogin(self): void" style="text;strokeColor=none;fillColor=none;align=left;verticalAlign=middle;spacingLeft=4;spacingRight=4;overflow=hidden;points=[[0,0.5],[1,0.5]];portConstraint=eastwest;rotatable=0;" vertex="1" parent="30">
                    <mxGeometry y="90" width="295" height="30" as="geometry"/>
                </mxCell>
                <mxCell id="34" value="-studentMenu(self, currentUser): void" style="text;strokeColor=none;fillColor=none;align=left;verticalAlign=middle;spacingLeft=4;spacingRight=4;overflow=hidden;points=[[0,0.5],[1,0.5]];portConstraint=eastwest;rotatable=0;" vertex="1" parent="30">
                    <mxGeometry y="120" width="295" height="30" as="geometry"/>
                </mxCell>
                <mxCell id="35" value="-signOut(self): void" style="text;strokeColor=none;fillColor=none;align=left;verticalAlign=middle;spacingLeft=4;spacingRight=4;overflow=hidden;points=[[0,0.5],[1,0.5]];portConstraint=eastwest;rotatable=0;" vertex="1" parent="30">
                    <mxGeometry y="150" width="295" height="30" as="geometry"/>
                </mxCell>
                <mxCell id="36" value="" style="endArrow=none;html=1;exitX=0;exitY=1.002;exitDx=0;exitDy=0;exitPerimeter=0;entryX=1.001;entryY=0.002;entryDx=0;entryDy=0;entryPerimeter=0;" edge="1" parent="30" source="31" target="32">
                    <mxGeometry width="50" height="50" relative="1" as="geometry">
                        <mxPoint x="110" y="300" as="sourcePoint"/>
                        <mxPoint x="160" y="250" as="targetPoint"/>
                    </mxGeometry>
                </mxCell>
            </root>
        </mxGraphModel>
    </diagram>
</mxfile>